HIERARCHY
ROOT hip
{
	OFFSET 0.000000 0.000000 0.000000 
	CHANNELS 6 Xposition Yposition Zposition Xrotation Zrotation Yrotation
	JOINT abdomen
	{
		OFFSET 0.000000 3.402643 0.000000 
		CHANNELS 3 Xrotation Zrotation Yrotation
		JOINT chest
		{
			OFFSET 0.000000 8.438565 -0.680529 
			CHANNELS 3 Xrotation Zrotation Yrotation
			JOINT neck
			{
				OFFSET 0.000000 10.207942 -0.272212 
				CHANNELS 3 Xrotation Zrotation Yrotation
				JOINT head
				{
					OFFSET 0.000000 3.130431 0.000000 
					CHANNELS 3 Xrotation Zrotation Yrotation
					End Site
					{
						OFFSET 0.000000 3.130435 0.000000 
					}
				}
			}
			JOINT lCollar
			{
				OFFSET 3.470700 6.669187 -0.816635 
				CHANNELS 3 Yrotation Zrotation Xrotation
				JOINT lShldr
				{
					OFFSET 3.198488 0.000000 0.000000 
					CHANNELS 3 Zrotation Yrotation Xrotation
					JOINT lForeArm
					{
						OFFSET 10.139888 0.000000 0.000000 
						CHANNELS 3 Yrotation Zrotation Xrotation
						JOINT lHand
						{
							OFFSET 8.370511 0.000000 0.000000 
							CHANNELS 3 Zrotation Yrotation Xrotation
							End Site
							{
								OFFSET 4.083176 0.000000 0.000000 
							}
						}
					}
				}
			}
			JOINT rCollar
			{
				OFFSET -3.470700 6.669187 -0.816635 
				CHANNELS 3 Yrotation Zrotation Xrotation
				JOINT rShldr
				{
					OFFSET -3.198488 0.000000 0.000000 
					CHANNELS 3 Zrotation Yrotation Xrotation
					JOINT rForeArm
					{
						OFFSET -10.139888 0.000000 0.000000 
						CHANNELS 3 Yrotation Zrotation Xrotation
						JOINT rHand
						{
							OFFSET -8.370511 0.000000 0.000000 
							CHANNELS 3 Zrotation Yrotation Xrotation
							End Site
							{
								OFFSET -4.083176 0.000000 0.000000 
							}
						}
					}
				}
			}
		}
	}
	JOINT lThigh
	{
		OFFSET 5.308129 -1.633274 1.361059 
		CHANNELS 3 Xrotation Zrotation Yrotation
		JOINT lShin
		{
			OFFSET -2.041588 -20.007561 0.000000 
			CHANNELS 3 Xrotation Zrotation Yrotation
			JOINT lFoot
			{
				OFFSET 0.000000 -19.190928 -1.224953 
				CHANNELS 3 Xrotation Yrotation Zrotation
				End Site
				{
					OFFSET 0.000000 -2.449906 4.627600 
				}
			}
		}
	}
	JOINT rThigh
	{
		OFFSET -5.308129 -1.633274 1.361059 
		CHANNELS 3 Xrotation Zrotation Yrotation
		JOINT rShin
		{
			OFFSET 2.041588 -20.007561 0.000000 
			CHANNELS 3 Xrotation Zrotation Yrotation
			JOINT rFoot
			{
				OFFSET 0.000000 -19.190928 -1.224953 
				CHANNELS 3 Xrotation Yrotation Zrotation
				End Site
				{
					OFFSET 0.000000 -2.449906 4.627600 
				}
			}
		}
	}
}
MOTION
Frames: 20
Frame Time: 0.033333
0.052108 45.973625 -0.116040 10.953792 3.975695 -8.849368 0.000000 0.000000 0.000000 -1.830493 -0.475555 6.377138 4.223512 10.956000 0.796706 -44.255978 -13.914562 0.843208 -25.292624 16.454659 24.992861 -93.449226 26.586908 -8.272873 -52.227386 -26.664402 30.591396 4.671787 2.827465 -60.385929 -3.093921 -12.366918 23.883095 52.648777 16.713581 68.433800 42.638058 -91.290344 -17.955936 48.758892 17.257904 -79.397026 -20.835947 -2.246902 15.253887 127.256721 16.039478 0.956501 -14.510634 23.942616 21.972746 -13.917344 -6.724322 -0.444653 52.732365 7.511716 5.560446 -31.754530 -12.726684 -8.306654 
0.193921 47.362858 -0.046026 9.100443 5.486945 -9.722605 0.000000 0.000000 0.000000 0.367322 -1.592540 6.086239 2.324553 7.421559 0.533017 -43.998032 -12.128105 0.668417 -22.064699 13.674109 24.987968 -89.952332 36.814987 -12.324258 -50.338272 -34.646828 37.556767 5.611112 -0.800698 -60.437832 -2.776896 -13.672656 23.862551 50.919128 25.189116 65.765755 -8.972979 -94.019424 -71.545174 42.958752 22.232498 -78.550575 -24.560270 -5.253549 14.027294 117.178711 16.063791 0.595936 -13.879787 17.975611 20.436352 2.342318 -7.360931 -1.106034 34.656544 6.434267 3.510036 -26.571489 -11.878025 -6.212250 
-0.131129 48.995495 -0.023647 6.722770 4.258966 -13.249716 0.000000 0.000000 0.000000 3.704566 -0.504804 6.240421 -0.354193 2.460927 0.166282 -42.812347 -6.815045 1.149569 -16.483118 11.873027 24.989742 -87.007774 44.055862 -17.733524 -47.752937 -41.568981 42.903694 0.822549 -3.739160 -59.865925 -0.292137 -15.250902 24.475266 51.654728 33.777569 63.908092 8.580439 -96.604973 -52.275032 35.956406 15.509786 -79.962738 -24.697121 -2.782993 14.673852 101.825317 15.791168 0.292532 -11.094503 10.177706 13.873513 16.441538 -5.906877 -0.908755 18.893478 6.586662 2.113396 -16.016960 -10.435308 -4.972064 
-0.874103 50.463291 0.034757 3.949914 -0.167464 -17.695406 0.000000 0.000000 0.000000 8.044819 2.453527 6.764130 -2.946102 -1.523434 -0.117406 -41.460838 -1.014635 2.529592 -10.490581 9.424956 24.990948 -84.431694 49.328098 -24.685843 -45.770618 -47.612774 43.964558 -3.292738 -6.658194 -59.146336 3.833169 -15.770472 24.998756 52.635082 38.382347 63.053787 -13.545804 -95.525757 -77.044243 22.830162 8.581881 -80.384216 -20.084223 4.246103 17.231451 83.387901 14.473726 0.035819 -10.778231 6.677921 17.259062 26.325682 -0.322248 0.751963 12.680078 2.977343 0.789094 -0.417385 -10.632333 0.202160 
-0.470430 51.115063 0.123962 3.140755 2.024688 -18.009542 0.000000 0.000000 0.000000 7.668282 0.718171 6.387316 -3.491577 -4.267510 -0.323552 -39.980705 3.154163 0.528157 -8.946530 8.039330 24.995821 -83.688629 49.712425 -26.039999 -46.053448 -48.556740 43.087845 -0.916045 -7.578279 -59.500004 5.023076 -17.595285 24.995647 54.886780 34.956352 64.978760 -35.625046 -97.150749 -95.207085 9.611814 0.529558 -81.407082 -17.770254 0.819086 16.434778 68.504227 11.175755 -0.376895 -12.892261 4.221222 9.765742 27.496599 -4.589598 -0.523898 19.144745 5.398231 1.833970 7.387071 -9.342044 12.357399 
-0.396628 51.505264 0.294886 3.459893 1.630408 -18.454811 0.000000 0.000000 0.000000 6.454982 1.028513 6.495193 -2.178946 -3.701126 -0.283873 -40.365093 3.759600 0.538515 -8.663137 6.739842 24.994432 -83.723801 48.699547 -24.870909 -52.087902 -45.308594 36.674065 0.070769 -7.569060 -59.913246 6.413942 -16.505833 24.998787 58.797207 28.653774 68.222687 81.680695 -79.288872 22.627604 -0.544354 1.326853 -82.947685 -12.294033 0.898317 16.938072 45.205536 8.777267 0.005467 -14.848703 -5.108736 5.846081 24.929661 -3.105657 -0.072335 34.021923 1.306449 2.342083 6.261734 -10.044372 14.211720 
-0.478401 51.214577 0.481246 2.666016 0.000000 -18.828125 0.000000 0.000000 0.000000 6.579653 1.891290 6.702966 -0.264877 -2.509751 -0.195553 -40.807373 3.231832 1.095864 -9.038391 6.172120 24.997828 -83.379280 44.762978 -21.829212 -57.909500 -39.762932 30.803265 2.125699 -5.935771 -60.573349 7.569392 -14.985989 24.997681 63.532536 21.088934 71.989662 58.266663 -71.478180 5.694618 4.977828 -3.665571 -81.418427 -5.345500 1.869308 17.586891 28.018242 5.724707 0.256742 -13.954742 -7.218705 2.762986 20.981915 -1.200920 0.517290 53.464394 -1.170074 3.687848 7.269706 -12.554971 17.027544 
-0.242240 50.153046 0.401163 2.769679 0.074573 -17.343760 0.000000 0.000000 0.000000 6.026472 1.280590 6.574109 1.064450 0.019531 -0.009766 -41.048271 1.318260 0.703388 -11.412554 7.474617 24.995714 -84.576904 37.522129 -16.912127 -62.544922 -32.021271 22.502840 2.994372 -5.683640 -61.028545 6.743022 -13.493565 24.993103 66.614899 12.744835 75.240715 41.381149 -64.704697 -4.112648 12.247855 -4.600854 -80.602890 -5.755781 1.401647 17.428907 27.477148 4.485896 0.046969 -13.313186 -2.946477 1.979062 12.806291 -1.210575 0.569631 75.705482 -0.995864 5.737650 8.754758 -17.786348 16.539389 
0.040342 48.436329 0.206962 2.746916 0.207466 -15.058670 0.000000 0.000000 0.000000 5.909541 0.533755 6.406607 2.089637 2.949203 0.185804 -41.057358 -1.015600 -0.400501 -14.779282 9.431471 24.997681 -84.999619 27.922403 -13.880573 -67.330719 -26.008362 15.912393 2.693481 -4.414158 -61.282349 4.606029 -12.858761 24.999166 68.838371 4.955532 78.133583 32.574249 -54.822617 -10.211811 12.323332 -6.258911 -80.370216 -8.615468 1.030704 17.198507 36.927341 5.876019 -0.223878 -9.654881 -1.331275 9.568806 3.974170 -2.470350 0.301960 96.280472 0.947446 7.659186 10.218349 -20.286911 23.370222 
0.570517 46.518776 -0.225812 4.023726 2.376014 -12.285726 0.000000 0.000000 0.000000 4.888134 -1.534580 5.978595 1.771135 5.195209 0.363381 -40.974720 -4.284199 -2.115880 -17.440111 12.284121 24.990446 -83.714973 15.361203 -12.559341 -74.340828 -23.161373 13.642430 0.640266 -3.344877 -61.287586 2.045027 -13.053677 24.993473 69.600098 -3.267474 80.752754 29.312403 -44.005932 -17.113436 14.041799 -7.094549 -80.204308 -14.753924 -2.187937 15.840163 50.255268 9.828854 0.002612 -14.570964 3.184864 19.351851 -8.103931 -6.961564 -0.691822 113.882927 1.601929 8.726074 8.512096 -22.157118 16.754480 
0.746559 45.410294 -0.569493 4.255392 3.352354 -12.052042 0.000000 0.000000 0.000000 5.155398 -2.633241 5.738463 1.577454 6.015463 0.422727 -41.596088 -5.251115 -1.873491 -17.856777 12.813724 24.991922 -78.762283 3.711148 -13.555195 -84.967659 -20.438913 6.417542 5.882171 -6.679139 -62.630192 2.613437 -12.839150 24.996397 69.528992 -12.218838 83.644127 28.168896 -41.689690 -13.813143 16.438145 -5.788976 -80.176865 -14.999693 -2.392275 15.746378 57.448647 10.381742 -0.206685 -20.229813 2.771901 14.745152 -18.842272 -8.152287 -0.635270 123.085419 -0.068345 8.563068 8.037379 -21.277529 11.569593 
0.722765 45.410175 -0.620521 4.788210 3.823947 -11.089005 0.000000 0.000000 0.000000 4.708045 -3.275316 5.604387 1.365792 6.816168 0.482088 -41.649868 -6.099011 -2.210762 -19.076530 13.365470 24.988632 -73.107346 -7.623499 -14.920302 -93.781784 -13.003397 3.807532 8.643064 -10.131482 -64.019592 1.630492 -12.064524 25.000000 66.314026 -23.067814 86.357231 34.763062 -43.692844 -3.965949 22.127920 -7.905394 -79.873894 -9.560751 -2.774802 16.018152 54.336750 10.296928 -0.097228 -23.830957 2.120286 15.765962 -26.817987 -8.357038 -0.377535 123.885536 -0.283218 8.519596 5.442666 -15.905312 12.458992 
0.745864 46.389389 -0.487676 5.347270 4.798895 -8.623853 0.000000 0.000000 0.000000 3.811762 -4.423811 5.386682 1.275160 7.704726 0.552412 -41.468990 -7.836111 -3.618377 -22.475840 13.644028 24.996578 -66.386772 -18.040993 -16.851841 -99.435173 -1.672405 6.061506 8.478129 -10.858205 -64.413589 -1.477124 -11.541408 24.305784 60.372890 -32.645290 87.422363 48.174271 -41.815929 5.888260 17.024269 -7.927649 -79.746666 -0.703382 -5.194548 15.539427 43.987274 11.418101 0.651861 -21.712893 -1.780102 13.942545 -30.852354 -9.666106 -0.559409 116.379333 0.713179 8.531347 1.826560 -10.169677 14.265316 
0.520909 47.962761 0.056101 3.705005 3.994214 -6.920776 0.000000 0.000000 0.000000 4.717274 -4.112426 5.423498 1.955050 8.915463 0.643744 -41.158424 -9.370134 -4.930201 -25.292198 13.036449 24.995338 -59.322105 -23.556990 -19.176205 -101.708282 7.550353 12.729331 9.955356 -10.809286 -65.027206 -3.809386 -10.436337 23.874521 54.350475 -39.621662 86.734016 59.179409 -38.828342 18.163088 13.328006 -4.911319 -79.996857 13.508750 -4.985544 15.141363 28.619146 10.102818 1.286186 -13.247740 -8.390210 7.329130 -27.525679 -9.403509 -0.624359 100.992317 3.916093 8.620040 -2.228259 -7.502275 17.833887 
0.245039 49.467159 0.558605 2.769643 2.494416 -6.343761 0.000000 0.000000 0.000000 4.897518 -2.788898 5.699899 2.958606 10.067572 0.724106 -41.004055 -10.512614 -5.295642 -27.100050 12.177904 24.997404 -54.753551 -24.929802 -20.693171 -101.816513 9.536815 12.834955 13.210236 -10.935128 -66.097862 -5.067188 -9.535720 23.718258 50.804474 -42.779701 85.275932 66.067009 -38.354279 29.245556 11.963390 -1.784435 -80.181313 24.333813 -2.401318 14.936676 19.339340 5.729410 0.842849 -3.067504 -7.971081 6.285687 -22.934038 -7.898634 -0.399107 81.087547 7.402196 8.045750 -6.143374 -7.857756 21.830427 
0.367824 50.431313 0.768498 3.755057 3.742872 -5.441021 0.000000 0.000000 0.000000 3.354282 -3.430762 5.615260 3.650364 10.741226 0.775673 -41.006062 -11.580948 -5.383386 -29.367992 11.187674 24.991728 -54.109550 -23.550508 -20.901882 -100.150673 9.903533 16.758547 14.560763 -12.608933 -66.888039 -6.329165 -9.107937 23.541447 50.225372 -42.205051 84.245789 67.745193 -40.946487 31.281242 10.953313 1.902217 -80.508865 25.874353 -3.337629 14.454483 25.114180 6.324945 0.596466 0.093837 -3.513942 7.696276 -19.435631 -9.469018 -1.019228 59.080685 9.003867 6.487338 -11.050257 -10.967269 16.092066 
0.470019 50.719147 1.025478 3.628308 5.385236 -4.305728 0.000000 0.000000 0.000000 2.919158 -4.706064 5.350057 4.452443 11.776061 0.858041 -41.242283 -13.054913 -5.594714 -31.405699 11.271653 24.991718 -59.083023 -21.109131 -19.297485 -97.631058 9.906961 31.337683 13.151690 -10.150063 -65.813530 -7.392437 -8.446619 23.445601 51.787594 -38.751534 83.672737 63.942162 -44.828568 23.341993 11.254796 5.318940 -80.745003 25.427994 -4.803706 14.038708 38.980671 10.902010 0.816060 -1.338667 -2.331144 5.705817 -12.908635 -11.443903 -1.909713 36.270683 9.255576 4.270315 -14.478601 -10.712803 12.604314 
0.394841 50.170891 1.035172 4.666611 5.762169 -4.671960 0.000000 0.000000 0.000000 1.733873 -4.598742 5.397936 5.200681 12.254395 0.900334 -41.452942 -13.357645 -5.070883 -31.135258 11.629957 24.996128 -66.859367 -16.241522 -16.747391 -93.550652 5.116728 36.986675 6.290507 -8.826279 -63.623928 -6.923886 -8.756518 23.487684 55.287315 -32.404999 83.288078 55.826057 -47.579544 4.719443 13.889958 7.685056 -80.647797 21.773994 -4.783333 14.478220 57.406403 15.107579 0.868468 -5.390409 3.332708 9.773655 -12.672119 -11.441850 -1.926225 28.893318 8.583008 3.441156 -16.310030 -9.874627 13.504928 
0.437441 48.820747 0.656006 8.051595 6.459726 -5.925863 0.000000 0.000000 0.000000 -1.258356 -4.208749 5.551516 5.489667 12.137255 0.890776 -42.073540 -13.441264 -3.595430 -28.707617 12.885151 24.990835 -76.472099 -10.117921 -13.443963 -87.907814 -1.092870 35.269238 -2.344317 -4.905959 -61.635147 -5.425443 -10.302180 23.568260 58.720188 -23.693504 81.879623 48.447872 -48.751907 -13.363158 16.539949 10.022115 -80.358116 12.326566 -5.267758 15.109340 80.570267 17.244022 0.687888 -8.941279 13.156758 13.778947 -20.867773 -11.561825 -1.618093 38.327129 8.456506 4.296103 -16.348961 -11.573839 5.628023 
0.283833 47.129467 0.337063 9.772356 5.747697 -7.783208 0.000000 0.000000 0.000000 -2.360140 -2.817174 5.875942 5.825838 12.264159 0.900335 -42.822487 -12.983609 -1.563468 -26.245729 14.478907 24.991676 -84.795967 -2.458538 -10.481394 -79.508942 -6.314517 32.528961 -5.780120 0.470964 -61.275990 -3.577283 -11.242330 23.857832 60.009502 -14.246201 79.344055 50.191113 -45.288750 -40.079250 22.614370 10.060545 -79.548874 4.174324 -3.625327 15.958580 101.834427 16.854229 0.529604 -11.335075 20.989042 19.671865 -26.482166 -8.964161 -0.556377 50.563610 6.796552 5.132405 -19.402704 -14.620375 -5.668733 
